<?xml version="1.0" encoding="UTF-8" standalone="no"?>
<svg
   xmlns:dc="http://purl.org/dc/elements/1.1/"
   xmlns:cc="http://creativecommons.org/ns#"
   xmlns:rdf="http://www.w3.org/1999/02/22-rdf-syntax-ns#"
   xmlns:svg="http://www.w3.org/2000/svg"
   xmlns="http://www.w3.org/2000/svg"
   id="svg8"
   version="1.1"
   viewBox="0 0 41.927944 19.169064"
   height="19.169064mm"
   width="41.927944mm">
  <defs
     id="defs2" />
  <metadata
     id="metadata5">
    <rdf:RDF>
      <cc:Work
         rdf:about="">
        <dc:format>image/svg+xml</dc:format>
        <dc:type
           rdf:resource="http://purl.org/dc/dcmitype/StillImage" />
        <dc:title></dc:title>
      </cc:Work>
    </rdf:RDF>
  </metadata>
  <g
     transform="translate(-82.346316,-160.99702)"
     id="layer1">
    <g
       id="text4520"
       style="font-style:normal;font-variant:normal;font-weight:normal;font-stretch:normal;font-size:19.75555611px;line-height:1.25;font-family:'Cocogoose Condensed Trial';-inkscape-font-specification:'Cocogoose Condensed Trial';letter-spacing:0px;word-spacing:0px;fill:#000000;fill-opacity:1;stroke:none;stroke-width:0.26458332"
       aria-label="eBoy">
      <path
         id="path5069"
         style="letter-spacing:-0.62970829px;fill:#000305;fill-opacity:1"
         d="m 82.346316,167.82915 q 0,-1.05981 0.380706,-1.97556 0.380706,-0.91575 1.028935,-1.58456 0.658519,-0.6791 1.522824,-1.0598 0.874595,-0.391 1.852083,-0.391 0.854017,0 1.697744,0.27781 0.854016,0.27782 1.533113,0.90547 0.679097,0.61736 1.100961,1.636 0.421863,1.00836 0.421863,2.47974 v 1.81092 q 0,0.38071 -0.195498,0.55563 -0.195497,0.16463 -0.576203,0.16463 h -5.072651 v 0.55562 q 0,0.59679 0.31897,0.9672 0.31897,0.36013 0.895174,0.36013 0.493889,0 0.78199,-0.1955 0.288102,-0.20579 0.288102,-0.55562 v -0.0206 q 0,-0.23666 0.277813,-0.23666 h 2.86044 q 0.144051,0 0.164629,0.1029 0.02058,0.0926 0.02058,0.23665 v 0.12347 q 0,0.85402 -0.360127,1.57427 -0.360128,0.72026 -0.967199,1.24502 -0.596783,0.52475 -1.389063,0.82314 -0.781991,0.28811 -1.625718,0.28811 -1.10096,0 -2.016713,-0.37042 -0.915752,-0.38071 -1.57427,-1.04951 -0.64823,-0.6791 -1.008357,-1.59485 -0.360127,-0.92605 -0.360127,-2.02701 z m 3.693877,0.10289 h 2.284236 v -0.51447 q 0,-0.23665 -0.07202,-0.45273 -0.06174,-0.22637 -0.205787,-0.391 -0.144051,-0.17491 -0.360127,-0.26752 -0.216077,-0.10289 -0.524757,-0.10289 -0.267524,0 -0.4836,0.11318 -0.205787,0.10289 -0.349838,0.27781 -0.144051,0.16463 -0.216076,0.391 -0.07203,0.21608 -0.07203,0.44244 z" />
      <path
         id="path5071"
         style="letter-spacing:-0.36247915px;fill:#1a97ff;fill-opacity:1"
         d="m 92.906278,161.43946 q 0,-0.44244 0.421864,-0.44244 h 4.928599 q 0.936331,0 1.718322,0.31897 0.781987,0.30868 1.337617,0.8643 0.56591,0.54534 0.87459,1.28617 0.31897,0.74083 0.31897,1.58456 v 0.56591 q 0,0.42187 -0.13376,0.81286 -0.12347,0.38071 -0.32926,0.70997 -0.19549,0.31897 -0.44244,0.54533 -0.24694,0.22637 -0.4836,0.31897 0.26752,0.1029 0.56592,0.36013 0.30868,0.24695 0.56591,0.61736 0.26752,0.37042 0.43215,0.84373 0.17492,0.46302 0.17492,0.99807 v 0.95691 q 0,0.81286 -0.36013,1.52282 -0.34983,0.70997 -0.93633,1.23472 -0.58649,0.52476 -1.3479,0.83344 -0.751125,0.29839 -1.543405,0.29839 h -5.340173 q -0.421864,0 -0.421864,-0.43215 z m 3.735035,8.26235 v 2.39742 h 1.574271 q 0.329259,0 0.576204,-0.22637 0.257233,-0.23665 0.257233,-0.59678 v -0.74083 q 0,-0.15435 -0.06174,-0.2984 -0.05145,-0.15434 -0.164629,-0.26752 -0.102894,-0.12347 -0.257234,-0.1955 -0.154341,-0.072 -0.349838,-0.072 z m 0,-5.13439 v 2.05787 h 1.296458 q 0.833438,0 0.833438,-0.75112 v -0.49389 q 0,-0.41157 -0.216077,-0.60707 -0.216076,-0.20579 -0.689386,-0.20579 z" />
      <path
         id="path5073"
         style="letter-spacing:-0.79904169px;fill:#1a97ff;fill-opacity:1"
         d="m 103.54054,167.7777 q 0,-0.98778 0.37042,-1.88295 0.38071,-0.90547 1.03923,-1.58456 0.65851,-0.6791 1.5434,-1.08038 0.89517,-0.41158 1.92411,-0.41158 1.03922,0 1.9344,0.391 0.89517,0.39099 1.55369,1.0598 0.65852,0.66881 1.02893,1.57427 0.38071,0.90546 0.38071,1.9344 v 3.1897 q 0,1.03922 -0.36013,1.9344 -0.36013,0.89517 -0.99807,1.56398 -0.62765,0.65852 -1.51253,1.03922 -0.87459,0.37042 -1.90353,0.37042 -1.03922,0 -1.95498,-0.37042 -0.90546,-0.3807 -1.58456,-1.03922 -0.67909,-0.66881 -1.07009,-1.56398 -0.391,-0.89518 -0.391,-1.9344 z m 3.79678,3.34404 q 0,0.52476 0.27781,0.89517 0.27781,0.37042 0.82315,0.37042 0.27781,0 0.47331,-0.10289 0.20578,-0.1029 0.33955,-0.26753 0.13376,-0.17492 0.19549,-0.40128 0.072,-0.23666 0.072,-0.49389 v -3.48809 q 0,-0.25724 -0.072,-0.49389 -0.0617,-0.24695 -0.20578,-0.43215 -0.13377,-0.18521 -0.33955,-0.28811 -0.1955,-0.11318 -0.46302,-0.11318 -0.26753,0 -0.47331,0.11318 -0.20579,0.1029 -0.34984,0.28811 -0.13376,0.1852 -0.20579,0.42186 -0.072,0.23665 -0.072,0.49389 z" />
      <path
         id="path5075"
         style="font-style:normal;font-variant:normal;font-weight:normal;font-stretch:normal;font-size:19.75555611px;font-family:'Cocogoose Condensed Trial';-inkscape-font-specification:'Cocogoose Condensed Trial';letter-spacing:0px;fill:#1a97ff;fill-opacity:1;stroke-width:0.26458332"
         d="m 119.45141,179.73393 q -0.14405,0.43215 -0.56591,0.43215 h -2.54147 q -0.24695,0 -0.391,-0.0823 -0.13376,-0.072 -0.1955,-0.19549 -0.0514,-0.12348 -0.0514,-0.27782 0.0103,-0.14405 0.0617,-0.2881 l 1.14212,-3.45722 -3.54983,-12.01796 q -0.21607,-0.76142 0.38071,-0.76142 h 2.9942 q 0.391,0 0.50418,0.46303 l 1.30675,6.41026 0.22636,1.79035 0.21608,-1.78006 1.29646,-6.46171 q 0.0514,-0.22637 0.18521,-0.32926 0.13376,-0.1029 0.33955,-0.1029 h 3.05593 q 0.30868,0 0.38071,0.17492 0.072,0.16463 -0.0412,0.50418 z" />
    </g>
  </g>
</svg>
